<svg width="1100" height="760" viewBox="0 0 1100 760" xmlns="http://www.w3.org/2000/svg" role="img" aria-labelledby="ttl desc">
  <title id="ttl">Snehit codebase composition</title>
  <desc id="desc">Language treemap, work category mix, top projects, PR rhythm with extended statistics.</desc>
  <style>text { font-family: 'JetBrains Mono', 'SF Mono', ui-monospace, Menlo, monospace; } .sans { font-family: 'Inter', ui-sans-serif, system-ui, sans-serif; }</style>
  <defs>
  <linearGradient id="bgGrad" x1="0" x2="1" y1="0" y2="1">
    <stop offset="0" stop-color="#06101c"/>
    <stop offset="1" stop-color="#040912"/>
  </linearGradient>
  <pattern id="dots" width="20" height="20" patternUnits="userSpaceOnUse">
    <circle cx="1" cy="1" r="0.9" fill="#16263f" opacity="0.55"/>
  </pattern>
  <linearGradient id="limeFade" x1="0" x2="0" y1="0" y2="1">
    <stop offset="0" stop-color="#a3e635" stop-opacity="0.55"/>
    <stop offset="1" stop-color="#a3e635" stop-opacity="0"/>
  </linearGradient>
  <linearGradient id="cyanFade" x1="0" x2="0" y1="0" y2="1">
    <stop offset="0" stop-color="#67e8f9" stop-opacity="0.45"/>
    <stop offset="1" stop-color="#67e8f9" stop-opacity="0"/>
  </linearGradient>
</defs>
  <rect width="1100" height="760" rx="10" fill="url(#bgGrad)"/>
<rect width="1100" height="760" rx="10" fill="url(#dots)"/>
<rect x="0.5" y="0.5" width="1099" height="759" rx="9.5" fill="none" stroke="#243652"/>


  <!-- Header -->
  <text x="44" y="56" fill="#f4f7fb" font-size="26" font-weight="800" letter-spacing="-0.5" class="sans">codebase composition</text>
  <text x="44" y="76" fill="#7286a0" font-size="11" letter-spacing="1">SNEHIT · 26 PUBLIC + 15 PRIVATE REPOS · 19 LANGUAGES · 2026-09-18</text>
  <line x1="44" y1="86" x2="1056" y2="86" stroke="#243652"/>

  <!-- Language treemap -->
  <text x="44" y="110" fill="#f4f7fb" font-size="11" font-weight="700" letter-spacing="2">LANGUAGE TREEMAP · BYTES</text>
<text x="1056" y="110" fill="#4a5b75" font-size="10.5" letter-spacing="1" text-anchor="end">JUPYTER EXCLUDED · TOP 9 OF 19</text>
  <rect x="46.00" y="122.00" width="489.97" height="276.00" rx="4" fill="#3178c6" opacity="0.92"><title>TypeScript · 48.8%</title></rect>
<text x="56.00" y="144.00" fill="#f8fafc" font-size="14" font-weight="800" class="sans">TypeScript</text>
<text x="56.00" y="160.00" fill="#f8fafc" font-size="11" opacity="0.85">48.8%</text>
<rect x="539.97" y="122.00" width="177.44" height="170.46" rx="4" fill="#e34c26" opacity="0.92"><title>HTML · 11.2%</title></rect>
<text x="549.97" y="144.00" fill="#f8fafc" font-size="14" font-weight="800" class="sans">HTML</text>
<text x="549.97" y="160.00" fill="#f8fafc" font-size="11" opacity="0.85">11.2%</text>
<rect x="539.97" y="296.46" width="177.44" height="101.54" rx="4" fill="#f1e05a" opacity="0.92"><title>JavaScript · 6.8%</title></rect>
<text x="549.97" y="318.46" fill="#0b1320" font-size="14" font-weight="800" class="sans">JavaScript</text>
<text x="549.97" y="334.46" fill="#0b1320" font-size="11" opacity="0.85">6.8%</text>
<rect x="721.41" y="122.00" width="124.58" height="140.06" rx="4" fill="#A97BFF" opacity="0.92"><title>Kotlin · 6.5%</title></rect>
<text x="731.41" y="144.00" fill="#f8fafc" font-size="14" font-weight="800" class="sans">Kotlin</text>
<text x="731.41" y="160.00" fill="#f8fafc" font-size="11" opacity="0.85">6.5%</text>
<rect x="721.41" y="266.06" width="124.58" height="131.94" rx="4" fill="#3572A5" opacity="0.92"><title>Python · 6.2%</title></rect>
<text x="731.41" y="288.06" fill="#f8fafc" font-size="14" font-weight="800" class="sans">Python</text>
<text x="731.41" y="304.06" fill="#f8fafc" font-size="11" opacity="0.85">6.2%</text>
<rect x="850.00" y="122.00" width="118.16" height="122.50" rx="4" fill="#a3e635" opacity="0.92"><title>Dart · 5.5%</title></rect>
<text x="860.00" y="144.00" fill="#0b1320" font-size="14" font-weight="800" class="sans">Dart</text>
<text x="860.00" y="160.00" fill="#0b1320" font-size="11" opacity="0.85">5.5%</text>
<rect x="972.16" y="122.00" width="81.84" height="122.50" rx="4" fill="#41b883" opacity="0.92"><title>Vue · 3.8%</title></rect>
<text x="982.16" y="144.00" fill="#f8fafc" font-size="14" font-weight="800" class="sans">Vue</text>
<text x="982.16" y="160.00" fill="#f8fafc" font-size="11" opacity="0.85">3.8%</text>
<rect x="850.00" y="248.50" width="55.88" height="149.50" rx="4" fill="#a855f7" opacity="0.92"><title>CSS · 3.2%</title></rect>
<text x="856.00" y="262.50" fill="#f8fafc" font-size="10" font-weight="700">CSS</text>
<rect x="909.88" y="248.50" width="144.12" height="149.50" rx="4" fill="#475569" opacity="0.92"><title>Other · 8.0%</title></rect>
<text x="919.88" y="270.50" fill="#f8fafc" font-size="14" font-weight="800" class="sans">Other</text>
<text x="919.88" y="286.50" fill="#f8fafc" font-size="11" opacity="0.85">8.0%</text>

  <!-- Categories -->
  <line x1="44" y1="430" x2="1056" y2="430" stroke="#1a2942"/>
  <text x="44" y="444" fill="#f4f7fb" font-size="11" font-weight="700" letter-spacing="2">WORK CATEGORIES · COMMITS</text>
<text x="1056" y="444" fill="#4a5b75" font-size="10.5" letter-spacing="1" text-anchor="end">FOCUS TOP-3 42% · BALANCED · ENTROPY 0.79</text>
  <rect x="44.00" y="486" width="354.72" height="14" rx="3" fill="#a3e635"><title>AI / Voice · 1797</title></rect>
<rect x="400.72" y="486" width="235.62" height="14" rx="3" fill="#67e8f9"><title>Web Apps · 1197</title></rect>
<rect x="638.34" y="486" width="187.97" height="14" rx="3" fill="#fbbf24"><title>Linux / CLI · 957</title></rect>
<rect x="828.31" y="486" width="132.19" height="14" rx="3" fill="#c084fc"><title>Other · 676</title></rect>
<rect x="962.50" y="486" width="91.50" height="14" rx="3" fill="#f472b6"><title>Mobile · 471</title></rect>
  <rect x="44" y="521" width="10" height="10" rx="2" fill="#a3e635"/>
<text x="62" y="530" fill="#c8d2e2" font-size="12">AI / Voice</text>
<text x="364" y="530" fill="#7286a0" font-size="11" text-anchor="end">1797  ·  35%</text>
<rect x="384" y="521" width="10" height="10" rx="2" fill="#67e8f9"/>
<text x="402" y="530" fill="#c8d2e2" font-size="12">Web Apps</text>
<text x="704" y="530" fill="#7286a0" font-size="11" text-anchor="end">1197  ·  23%</text>
<rect x="724" y="521" width="10" height="10" rx="2" fill="#fbbf24"/>
<text x="742" y="530" fill="#c8d2e2" font-size="12">Linux / CLI</text>
<text x="1044" y="530" fill="#7286a0" font-size="11" text-anchor="end">957  ·  19%</text>
<rect x="44" y="547" width="10" height="10" rx="2" fill="#c084fc"/>
<text x="62" y="556" fill="#c8d2e2" font-size="12">Other</text>
<text x="364" y="556" fill="#7286a0" font-size="11" text-anchor="end">676  ·  13%</text>
<rect x="384" y="547" width="10" height="10" rx="2" fill="#f472b6"/>
<text x="402" y="556" fill="#c8d2e2" font-size="12">Mobile</text>
<text x="704" y="556" fill="#7286a0" font-size="11" text-anchor="end">471  ·  9%</text>

  <!-- Bottom -->
  <line x1="44" y1="570" x2="1056" y2="570" stroke="#1a2942"/>
  <text x="44" y="584" fill="#f4f7fb" font-size="11" font-weight="700" letter-spacing="2">TOP PROJECTS · 365D</text>
  <text x="600" y="584" fill="#f4f7fb" font-size="11" font-weight="700" letter-spacing="2">PR RHYTHM · 26W + SIGNALS</text>
<text x="1056" y="584" fill="#4a5b75" font-size="10.5" letter-spacing="1" text-anchor="end">MEAN 13.5/WK</text>
  <line x1="44" y1="590" x2="574" y2="590" stroke="#1a2942"/>
  <line x1="600" y1="590" x2="1056" y2="590" stroke="#1a2942"/>
  <text x="44" y="616" fill="#4a5b75" font-size="11" font-weight="700"> 1</text>
<text x="70" y="616" fill="#c8d2e2" font-size="12">pravah</text>
<rect x="214" y="608" width="300.0" height="6" rx="1" fill="#1a2942"/>
<rect x="214" y="608" width="300.0" height="6" rx="1" fill="#a3e635"/>
<text x="544" y="616" fill="#7286a0" font-size="11" text-anchor="end">1222</text>
<text x="44" y="634" fill="#4a5b75" font-size="11" font-weight="700"> 2</text>
<text x="70" y="634" fill="#c8d2e2" font-size="12">pomo</text>
<rect x="214" y="626" width="300.0" height="6" rx="1" fill="#1a2942"/>
<rect x="214" y="626" width="115.6" height="6" rx="1" fill="#67e8f9"/>
<text x="544" y="634" fill="#7286a0" font-size="11" text-anchor="end">471</text>
<text x="44" y="652" fill="#4a5b75" font-size="11" font-weight="700"> 3</text>
<text x="70" y="652" fill="#c8d2e2" font-size="12">hyprvox</text>
<rect x="214" y="644" width="300.0" height="6" rx="1" fill="#1a2942"/>
<rect x="214" y="644" width="112.7" height="6" rx="1" fill="#fbbf24"/>
<text x="544" y="652" fill="#7286a0" font-size="11" text-anchor="end">459</text>
<text x="44" y="670" fill="#4a5b75" font-size="11" font-weight="700"> 4</text>
<text x="70" y="670" fill="#c8d2e2" font-size="12">hyprfolio</text>
<rect x="214" y="662" width="300.0" height="6" rx="1" fill="#1a2942"/>
<rect x="214" y="662" width="96.7" height="6" rx="1" fill="#c084fc"/>
<text x="544" y="670" fill="#7286a0" font-size="11" text-anchor="end">394</text>
<text x="44" y="688" fill="#4a5b75" font-size="11" font-weight="700"> 5</text>
<text x="70" y="688" fill="#c8d2e2" font-size="12">fateWheel</text>
<rect x="214" y="680" width="300.0" height="6" rx="1" fill="#1a2942"/>
<rect x="214" y="680" width="86.9" height="6" rx="1" fill="#f472b6"/>
<text x="544" y="688" fill="#7286a0" font-size="11" text-anchor="end">354</text>
<text x="44" y="706" fill="#4a5b75" font-size="11" font-weight="700"> 6</text>
<text x="70" y="706" fill="#c8d2e2" font-size="12">aceon</text>
<rect x="214" y="698" width="300.0" height="6" rx="1" fill="#1a2942"/>
<rect x="214" y="698" width="69.5" height="6" rx="1" fill="#5eead4"/>
<text x="544" y="706" fill="#7286a0" font-size="11" text-anchor="end">283</text>
<text x="44" y="724" fill="#4a5b75" font-size="11" font-weight="700"> 7</text>
<text x="70" y="724" fill="#c8d2e2" font-size="12">vidyut</text>
<rect x="214" y="716" width="300.0" height="6" rx="1" fill="#1a2942"/>
<rect x="214" y="716" width="59.4" height="6" rx="1" fill="#fde68a"/>
<text x="544" y="724" fill="#7286a0" font-size="11" text-anchor="end">242</text>
<text x="44" y="742" fill="#4a5b75" font-size="11" font-weight="700"> 8</text>
<text x="70" y="742" fill="#c8d2e2" font-size="12">saksham</text>
<rect x="214" y="734" width="300.0" height="6" rx="1" fill="#1a2942"/>
<rect x="214" y="734" width="39.3" height="6" rx="1" fill="#94a3b8"/>
<text x="544" y="742" fill="#7286a0" font-size="11" text-anchor="end">160</text>
  <line x1="600" y1="696" x2="1056" y2="696" stroke="#1a2942"/>
  <rect x="600.00" y="683.76" width="14.65" height="12.24" rx="1" fill="#c084fc"/>
<rect x="617.65" y="684.71" width="14.65" height="11.29" rx="1" fill="#c084fc"/>
<rect x="635.31" y="673.41" width="14.65" height="22.59" rx="1" fill="#c084fc"/>
<rect x="652.96" y="686.59" width="14.65" height="9.41" rx="1" fill="#c084fc"/>
<rect x="670.62" y="688.47" width="14.65" height="7.53" rx="1" fill="#c084fc"/>
<rect x="688.27" y="686.59" width="14.65" height="9.41" rx="1" fill="#c084fc"/>
<rect x="705.92" y="687.53" width="14.65" height="8.47" rx="1" fill="#c084fc"/>
<rect x="723.58" y="662.12" width="14.65" height="33.88" rx="1" fill="#f472b6"/>
<rect x="741.23" y="677.18" width="14.65" height="18.82" rx="1" fill="#c084fc"/>
<rect x="758.88" y="686.59" width="14.65" height="9.41" rx="1" fill="#c084fc"/>
<rect x="776.54" y="685.65" width="14.65" height="10.35" rx="1" fill="#c084fc"/>
<rect x="794.19" y="694.12" width="14.65" height="1.88" rx="1" fill="#c084fc"/>
<rect x="811.85" y="616.00" width="14.65" height="80.00" rx="1" fill="#f472b6"/>
<rect x="829.50" y="680.94" width="14.65" height="15.06" rx="1" fill="#c084fc"/>
<rect x="847.15" y="689.41" width="14.65" height="6.59" rx="1" fill="#c084fc"/>
<rect x="864.81" y="694.12" width="14.65" height="1.88" rx="1" fill="#c084fc"/>
<rect x="882.46" y="680.00" width="14.65" height="16.00" rx="1" fill="#c084fc"/>
<rect x="900.12" y="667.76" width="14.65" height="28.24" rx="1" fill="#f472b6"/>
<rect x="917.77" y="678.12" width="14.65" height="17.88" rx="1" fill="#c084fc"/>
<rect x="935.42" y="684.71" width="14.65" height="11.29" rx="1" fill="#c084fc"/>
<rect x="953.08" y="689.41" width="14.65" height="6.59" rx="1" fill="#c084fc"/>
<rect x="970.73" y="691.29" width="14.65" height="4.71" rx="1" fill="#c084fc"/>
<rect x="988.38" y="690.35" width="14.65" height="5.65" rx="1" fill="#c084fc"/>
<rect x="1006.04" y="680.00" width="14.65" height="16.00" rx="1" fill="#c084fc"/>
<rect x="1023.69" y="693.18" width="14.65" height="2.82" rx="1" fill="#c084fc"/>
<rect x="1041.35" y="692.24" width="14.65" height="3.76" rx="1" fill="#c084fc"/>
  <text x="600" y="710" fill="#4a5b75" font-size="10">Mar 23</text>
  <text x="1056" y="710" fill="#4a5b75" font-size="10" text-anchor="end">Sep 14</text>
  <text x="600" y="732" fill="#7286a0" font-size="10" font-weight="700" letter-spacing="1.5">MERGE RATIO</text>
<text x="600" y="750" fill="#a3e635" font-size="22" font-weight="800" letter-spacing="-1">96%</text>
<text x="600" y="768" fill="#4a5b75" font-size="11">517/541 merged</text>
<text x="730" y="732" fill="#7286a0" font-size="10" font-weight="700" letter-spacing="1.5">ACTIVE WEEKS</text>
<text x="730" y="750" fill="#67e8f9" font-size="22" font-weight="800" letter-spacing="-1">40</text>
<text x="730" y="768" fill="#4a5b75" font-size="11">of 53 (75%)</text>
<text x="860" y="732" fill="#7286a0" font-size="10" font-weight="700" letter-spacing="1.5">P95 / WEEK</text>
<text x="860" y="750" fill="#fbbf24" font-size="22" font-weight="800" letter-spacing="-1">35</text>
<text x="860" y="768" fill="#4a5b75" font-size="11">max 85/wk</text>
<text x="990" y="732" fill="#7286a0" font-size="10" font-weight="700" letter-spacing="1.5">4W TREND</text>
<text x="990" y="750" fill="#fb7185" font-size="22" font-weight="800" letter-spacing="-1">-30%</text>
<text x="990" y="768" fill="#4a5b75" font-size="11">▼ 30 vs prior 43</text>
</svg>
