<svg width="1100" height="760" viewBox="0 0 1100 760" xmlns="http://www.w3.org/2000/svg" role="img" aria-labelledby="ttl desc">
  <title id="ttl">Snehit codebase composition</title>
  <desc id="desc">Language treemap, work category mix, top projects, PR rhythm with extended statistics.</desc>
  <style>text { font-family: 'JetBrains Mono', 'SF Mono', ui-monospace, Menlo, monospace; } .sans { font-family: 'Inter', ui-sans-serif, system-ui, sans-serif; }</style>
  <defs>
  <linearGradient id="bgGrad" x1="0" x2="1" y1="0" y2="1">
    <stop offset="0" stop-color="#06101c"/>
    <stop offset="1" stop-color="#040912"/>
  </linearGradient>
  <pattern id="dots" width="20" height="20" patternUnits="userSpaceOnUse">
    <circle cx="1" cy="1" r="0.9" fill="#16263f" opacity="0.55"/>
  </pattern>
  <linearGradient id="limeFade" x1="0" x2="0" y1="0" y2="1">
    <stop offset="0" stop-color="#a3e635" stop-opacity="0.55"/>
    <stop offset="1" stop-color="#a3e635" stop-opacity="0"/>
  </linearGradient>
  <linearGradient id="cyanFade" x1="0" x2="0" y1="0" y2="1">
    <stop offset="0" stop-color="#67e8f9" stop-opacity="0.45"/>
    <stop offset="1" stop-color="#67e8f9" stop-opacity="0"/>
  </linearGradient>
</defs>
  <rect width="1100" height="760" rx="10" fill="url(#bgGrad)"/>
<rect width="1100" height="760" rx="10" fill="url(#dots)"/>
<rect x="0.5" y="0.5" width="1099" height="759" rx="9.5" fill="none" stroke="#243652"/>


  <!-- Header -->
  <text x="44" y="56" fill="#f4f7fb" font-size="26" font-weight="800" letter-spacing="-0.5" class="sans">codebase composition</text>
  <text x="44" y="76" fill="#7286a0" font-size="11" letter-spacing="1">SNEHIT · 24 PUBLIC + 14 PRIVATE REPOS · 16 LANGUAGES · 2026-07-10</text>
  <line x1="44" y1="86" x2="1056" y2="86" stroke="#243652"/>

  <!-- Language treemap -->
  <text x="44" y="110" fill="#f4f7fb" font-size="11" font-weight="700" letter-spacing="2">LANGUAGE TREEMAP · BYTES</text>
<text x="1056" y="110" fill="#4a5b75" font-size="10.5" letter-spacing="1" text-anchor="end">JUPYTER EXCLUDED · TOP 9 OF 16</text>
  <rect x="46.00" y="122.00" width="506.05" height="276.00" rx="4" fill="#3178c6" opacity="0.92"><title>TypeScript · 50.4%</title></rect>
<text x="56.00" y="144.00" fill="#f8fafc" font-size="14" font-weight="800" class="sans">TypeScript</text>
<text x="56.00" y="160.00" fill="#f8fafc" font-size="11" opacity="0.85">50.4%</text>
<rect x="556.05" y="122.00" width="132.61" height="276.00" rx="4" fill="#e34c26" opacity="0.92"><title>HTML · 13.5%</title></rect>
<text x="566.05" y="144.00" fill="#f8fafc" font-size="14" font-weight="800" class="sans">HTML</text>
<text x="566.05" y="160.00" fill="#f8fafc" font-size="11" opacity="0.85">13.5%</text>
<rect x="692.66" y="122.00" width="138.00" height="156.39" rx="4" fill="#f1e05a" opacity="0.92"><title>JavaScript · 8.0%</title></rect>
<text x="702.66" y="144.00" fill="#0b1320" font-size="14" font-weight="800" class="sans">JavaScript</text>
<text x="702.66" y="160.00" fill="#0b1320" font-size="11" opacity="0.85">8.0%</text>
<rect x="692.66" y="282.39" width="138.00" height="115.61" rx="4" fill="#3572A5" opacity="0.92"><title>Python · 6.0%</title></rect>
<text x="702.66" y="304.39" fill="#f8fafc" font-size="14" font-weight="800" class="sans">Python</text>
<text x="702.66" y="320.39" fill="#f8fafc" font-size="11" opacity="0.85">6.0%</text>
<rect x="834.67" y="122.00" width="110.83" height="109.15" rx="4" fill="#41b883" opacity="0.92"><title>Vue · 4.6%</title></rect>
<text x="844.67" y="144.00" fill="#f8fafc" font-size="14" font-weight="800" class="sans">Vue</text>
<text x="844.67" y="160.00" fill="#f8fafc" font-size="11" opacity="0.85">4.6%</text>
<rect x="949.49" y="122.00" width="104.51" height="109.15" rx="4" fill="#A97BFF" opacity="0.92"><title>Kotlin · 4.3%</title></rect>
<text x="959.49" y="144.00" fill="#f8fafc" font-size="14" font-weight="800" class="sans">Kotlin</text>
<text x="959.49" y="160.00" fill="#f8fafc" font-size="11" opacity="0.85">4.3%</text>
<rect x="834.67" y="235.15" width="116.12" height="91.10" rx="4" fill="#a855f7" opacity="0.92"><title>CSS · 4.0%</title></rect>
<text x="844.67" y="257.15" fill="#f8fafc" font-size="14" font-weight="800" class="sans">CSS</text>
<text x="844.67" y="273.15" fill="#f8fafc" font-size="11" opacity="0.85">4.0%</text>
<rect x="834.67" y="330.25" width="116.12" height="67.75" rx="4" fill="#89e051" opacity="0.92"><title>Shell · 3.0%</title></rect>
<text x="844.67" y="352.25" fill="#f8fafc" font-size="14" font-weight="800" class="sans">Shell</text>
<text x="844.67" y="368.25" fill="#f8fafc" font-size="11" opacity="0.85">3.0%</text>
<rect x="954.79" y="235.15" width="99.21" height="162.85" rx="4" fill="#475569" opacity="0.92"><title>Other · 6.1%</title></rect>
<text x="964.79" y="257.15" fill="#f8fafc" font-size="14" font-weight="800" class="sans">Other</text>
<text x="964.79" y="273.15" fill="#f8fafc" font-size="11" opacity="0.85">6.1%</text>

  <!-- Categories -->
  <line x1="44" y1="430" x2="1056" y2="430" stroke="#1a2942"/>
  <text x="44" y="444" fill="#f4f7fb" font-size="11" font-weight="700" letter-spacing="2">WORK CATEGORIES · COMMITS</text>
<text x="1056" y="444" fill="#4a5b75" font-size="10.5" letter-spacing="1" text-anchor="end">FOCUS TOP-3 42% · BALANCED · ENTROPY 0.81</text>
  <rect x="44.00" y="486" width="350.84" height="14" rx="3" fill="#a3e635"><title>AI / Voice · 1396</title></rect>
<rect x="396.84" y="486" width="295.74" height="14" rx="3" fill="#67e8f9"><title>Web Apps · 1178</title></rect>
<rect x="694.57" y="486" width="168.10" height="14" rx="3" fill="#fbbf24"><title>Other · 673</title></rect>
<rect x="864.67" y="486" width="146.62" height="14" rx="3" fill="#c084fc"><title>Linux / CLI · 588</title></rect>
<rect x="1013.29" y="486" width="40.71" height="14" rx="3" fill="#f472b6"><title>Mobile · 169</title></rect>
  <rect x="44" y="521" width="10" height="10" rx="2" fill="#a3e635"/>
<text x="62" y="530" fill="#c8d2e2" font-size="12">AI / Voice</text>
<text x="364" y="530" fill="#7286a0" font-size="11" text-anchor="end">1396  ·  35%</text>
<rect x="384" y="521" width="10" height="10" rx="2" fill="#67e8f9"/>
<text x="402" y="530" fill="#c8d2e2" font-size="12">Web Apps</text>
<text x="704" y="530" fill="#7286a0" font-size="11" text-anchor="end">1178  ·  29%</text>
<rect x="724" y="521" width="10" height="10" rx="2" fill="#fbbf24"/>
<text x="742" y="530" fill="#c8d2e2" font-size="12">Other</text>
<text x="1044" y="530" fill="#7286a0" font-size="11" text-anchor="end">673  ·  17%</text>
<rect x="44" y="547" width="10" height="10" rx="2" fill="#c084fc"/>
<text x="62" y="556" fill="#c8d2e2" font-size="12">Linux / CLI</text>
<text x="364" y="556" fill="#7286a0" font-size="11" text-anchor="end">588  ·  15%</text>
<rect x="384" y="547" width="10" height="10" rx="2" fill="#f472b6"/>
<text x="402" y="556" fill="#c8d2e2" font-size="12">Mobile</text>
<text x="704" y="556" fill="#7286a0" font-size="11" text-anchor="end">169  ·  4%</text>

  <!-- Bottom -->
  <line x1="44" y1="570" x2="1056" y2="570" stroke="#1a2942"/>
  <text x="44" y="584" fill="#f4f7fb" font-size="11" font-weight="700" letter-spacing="2">TOP PROJECTS · 365D</text>
  <text x="600" y="584" fill="#f4f7fb" font-size="11" font-weight="700" letter-spacing="2">PR RHYTHM · 26W + SIGNALS</text>
<text x="1056" y="584" fill="#4a5b75" font-size="10.5" letter-spacing="1" text-anchor="end">MEAN 13.9/WK</text>
  <line x1="44" y1="590" x2="574" y2="590" stroke="#1a2942"/>
  <line x1="600" y1="590" x2="1056" y2="590" stroke="#1a2942"/>
  <text x="44" y="616" fill="#4a5b75" font-size="11" font-weight="700"> 1</text>
<text x="70" y="616" fill="#c8d2e2" font-size="12">pravah</text>
<rect x="214" y="608" width="300.0" height="6" rx="1" fill="#1a2942"/>
<rect x="214" y="608" width="300.0" height="6" rx="1" fill="#a3e635"/>
<text x="544" y="616" fill="#7286a0" font-size="11" text-anchor="end">899</text>
<text x="44" y="634" fill="#4a5b75" font-size="11" font-weight="700"> 2</text>
<text x="70" y="634" fill="#c8d2e2" font-size="12">hyprvox</text>
<rect x="214" y="626" width="300.0" height="6" rx="1" fill="#1a2942"/>
<rect x="214" y="626" width="140.2" height="6" rx="1" fill="#67e8f9"/>
<text x="544" y="634" fill="#7286a0" font-size="11" text-anchor="end">420</text>
<text x="44" y="652" fill="#4a5b75" font-size="11" font-weight="700"> 3</text>
<text x="70" y="652" fill="#c8d2e2" font-size="12">fateWheel</text>
<rect x="214" y="644" width="300.0" height="6" rx="1" fill="#1a2942"/>
<rect x="214" y="644" width="118.1" height="6" rx="1" fill="#fbbf24"/>
<text x="544" y="652" fill="#7286a0" font-size="11" text-anchor="end">354</text>
<text x="44" y="670" fill="#4a5b75" font-size="11" font-weight="700"> 4</text>
<text x="70" y="670" fill="#c8d2e2" font-size="12">aceon</text>
<rect x="214" y="662" width="300.0" height="6" rx="1" fill="#1a2942"/>
<rect x="214" y="662" width="94.4" height="6" rx="1" fill="#c084fc"/>
<text x="544" y="670" fill="#7286a0" font-size="11" text-anchor="end">283</text>
<text x="44" y="688" fill="#4a5b75" font-size="11" font-weight="700"> 5</text>
<text x="70" y="688" fill="#c8d2e2" font-size="12">hyprfolio</text>
<rect x="214" y="680" width="300.0" height="6" rx="1" fill="#1a2942"/>
<rect x="214" y="680" width="93.4" height="6" rx="1" fill="#f472b6"/>
<text x="544" y="688" fill="#7286a0" font-size="11" text-anchor="end">280</text>
<text x="44" y="706" fill="#4a5b75" font-size="11" font-weight="700"> 6</text>
<text x="70" y="706" fill="#c8d2e2" font-size="12">pomo</text>
<rect x="214" y="698" width="300.0" height="6" rx="1" fill="#1a2942"/>
<rect x="214" y="698" width="56.4" height="6" rx="1" fill="#5eead4"/>
<text x="544" y="706" fill="#7286a0" font-size="11" text-anchor="end">169</text>
<text x="44" y="724" fill="#4a5b75" font-size="11" font-weight="700"> 7</text>
<text x="70" y="724" fill="#c8d2e2" font-size="12">saksham</text>
<rect x="214" y="716" width="300.0" height="6" rx="1" fill="#1a2942"/>
<rect x="214" y="716" width="53.4" height="6" rx="1" fill="#fde68a"/>
<text x="544" y="724" fill="#7286a0" font-size="11" text-anchor="end">160</text>
<text x="44" y="742" fill="#4a5b75" font-size="11" font-weight="700"> 8</text>
<text x="70" y="742" fill="#c8d2e2" font-size="12">fieldForce</text>
<rect x="214" y="734" width="300.0" height="6" rx="1" fill="#1a2942"/>
<rect x="214" y="734" width="46.7" height="6" rx="1" fill="#94a3b8"/>
<text x="544" y="742" fill="#7286a0" font-size="11" text-anchor="end">140</text>
  <line x1="600" y1="696" x2="1056" y2="696" stroke="#1a2942"/>
  <rect x="600.00" y="694.12" width="14.65" height="1.88" rx="1" fill="#c084fc"/>
<rect x="617.65" y="692.24" width="14.65" height="3.76" rx="1" fill="#c084fc"/>
<rect x="635.31" y="673.41" width="14.65" height="22.59" rx="1" fill="#c084fc"/>
<rect x="652.96" y="675.29" width="14.65" height="20.71" rx="1" fill="#c084fc"/>
<rect x="670.62" y="681.88" width="14.65" height="14.12" rx="1" fill="#c084fc"/>
<rect x="688.27" y="681.88" width="14.65" height="14.12" rx="1" fill="#c084fc"/>
<rect x="705.92" y="681.88" width="14.65" height="14.12" rx="1" fill="#c084fc"/>
<rect x="723.58" y="692.24" width="14.65" height="3.76" rx="1" fill="#c084fc"/>
<rect x="741.23" y="692.24" width="14.65" height="3.76" rx="1" fill="#c084fc"/>
<rect x="758.88" y="663.06" width="14.65" height="32.94" rx="1" fill="#f472b6"/>
<rect x="776.54" y="683.76" width="14.65" height="12.24" rx="1" fill="#c084fc"/>
<rect x="794.19" y="684.71" width="14.65" height="11.29" rx="1" fill="#c084fc"/>
<rect x="811.85" y="673.41" width="14.65" height="22.59" rx="1" fill="#c084fc"/>
<rect x="829.50" y="686.59" width="14.65" height="9.41" rx="1" fill="#c084fc"/>
<rect x="847.15" y="688.47" width="14.65" height="7.53" rx="1" fill="#c084fc"/>
<rect x="864.81" y="686.59" width="14.65" height="9.41" rx="1" fill="#c084fc"/>
<rect x="882.46" y="687.53" width="14.65" height="8.47" rx="1" fill="#c084fc"/>
<rect x="900.12" y="662.12" width="14.65" height="33.88" rx="1" fill="#f472b6"/>
<rect x="917.77" y="677.18" width="14.65" height="18.82" rx="1" fill="#c084fc"/>
<rect x="935.42" y="686.59" width="14.65" height="9.41" rx="1" fill="#c084fc"/>
<rect x="953.08" y="685.65" width="14.65" height="10.35" rx="1" fill="#c084fc"/>
<rect x="970.73" y="694.12" width="14.65" height="1.88" rx="1" fill="#c084fc"/>
<rect x="988.38" y="616.00" width="14.65" height="80.00" rx="1" fill="#f472b6"/>
<rect x="1006.04" y="680.94" width="14.65" height="15.06" rx="1" fill="#c084fc"/>
<rect x="1023.69" y="689.41" width="14.65" height="6.59" rx="1" fill="#c084fc"/>
<rect x="1041.35" y="695.06" width="14.65" height="0.94" rx="1" fill="#c084fc"/>
  <text x="600" y="710" fill="#4a5b75" font-size="10">Jan 12</text>
  <text x="1056" y="710" fill="#4a5b75" font-size="10" text-anchor="end">Jul 06</text>
  <text x="600" y="732" fill="#7286a0" font-size="10" font-weight="700" letter-spacing="1.5">MERGE RATIO</text>
<text x="600" y="750" fill="#a3e635" font-size="22" font-weight="800" letter-spacing="-1">94%</text>
<text x="600" y="768" fill="#4a5b75" font-size="11">407/431 merged</text>
<text x="730" y="732" fill="#7286a0" font-size="10" font-weight="700" letter-spacing="1.5">ACTIVE WEEKS</text>
<text x="730" y="750" fill="#67e8f9" font-size="22" font-weight="800" letter-spacing="-1">31</text>
<text x="730" y="768" fill="#4a5b75" font-size="11">of 53 (58%)</text>
<text x="860" y="732" fill="#7286a0" font-size="10" font-weight="700" letter-spacing="1.5">P95 / WEEK</text>
<text x="860" y="750" fill="#fbbf24" font-size="22" font-weight="800" letter-spacing="-1">36</text>
<text x="860" y="768" fill="#4a5b75" font-size="11">max 85/wk</text>
<text x="990" y="732" fill="#7286a0" font-size="10" font-weight="700" letter-spacing="1.5">4W TREND</text>
<text x="990" y="750" fill="#a3e635" font-size="22" font-weight="800" letter-spacing="-1">+153%</text>
<text x="990" y="768" fill="#4a5b75" font-size="11">▲ 109 vs prior 43</text>
</svg>
