<svg width="1100" height="730" viewBox="0 0 1100 730" xmlns="http://www.w3.org/2000/svg" role="img" aria-labelledby="ttl desc">
  <title id="ttl">Snehit build telemetry</title>
  <desc id="desc">Streak hero, twelve-month commit trajectory, weekday pulse, hour-of-day distribution, and top projects.</desc>
  <style>text { font-family: 'JetBrains Mono', 'SF Mono', ui-monospace, Menlo, monospace; } .sans { font-family: 'Inter', ui-sans-serif, system-ui, sans-serif; }</style>
  <defs>
  <linearGradient id="bgGrad" x1="0" x2="1" y1="0" y2="1">
    <stop offset="0" stop-color="#06101c"/>
    <stop offset="1" stop-color="#040912"/>
  </linearGradient>
  <pattern id="dots" width="20" height="20" patternUnits="userSpaceOnUse">
    <circle cx="1" cy="1" r="0.9" fill="#16263f" opacity="0.55"/>
  </pattern>
  <linearGradient id="limeFade" x1="0" x2="0" y1="0" y2="1">
    <stop offset="0" stop-color="#a3e635" stop-opacity="0.55"/>
    <stop offset="1" stop-color="#a3e635" stop-opacity="0"/>
  </linearGradient>
  <linearGradient id="cyanFade" x1="0" x2="0" y1="0" y2="1">
    <stop offset="0" stop-color="#67e8f9" stop-opacity="0.45"/>
    <stop offset="1" stop-color="#67e8f9" stop-opacity="0"/>
  </linearGradient>
</defs>
  <rect width="1100" height="730" rx="10" fill="url(#bgGrad)"/>
<rect width="1100" height="730" rx="10" fill="url(#dots)"/>
<rect x="0.5" y="0.5" width="1099" height="729" rx="9.5" fill="none" stroke="#243652"/>


  <!-- Header -->
  <text x="44" y="56" fill="#f4f7fb" font-size="26" font-weight="800" letter-spacing="-0.5" class="sans">build telemetry</text>
  <text x="44" y="76" fill="#7286a0" font-size="11" letter-spacing="1">SNEHIT · TRAILING 366 DAYS · 24 PUBLIC + 14 PRIVATE · 2026-07-06</text>
  <line x1="44" y1="86" x2="1056" y2="86" stroke="#243652"/>

  <!-- Hero: streak + trajectory -->
  <g>
    <text x="44" y="108" fill="#7286a0" font-size="10" font-weight="700" letter-spacing="2">CURRENT STREAK</text>
    <text x="44" y="201" fill="#a3e635" font-size="118" font-weight="900" letter-spacing="-6" class="sans">168<tspan font-size="40" fill="#f4f7fb" font-weight="800">d</tspan></text>
    <text x="44" y="234" fill="#c8d2e2" font-size="13">longest run 168d  ·  longest quiet stretch 115d</text>
    <text x="44" y="264" fill="#4a5b75" font-size="11">avg commit size 510 lines · code growth 84% additions</text>
  </g>
  <g>
    <text x="470" y="108" fill="#7286a0" font-size="10" font-weight="700" letter-spacing="2">12-MONTH TRAJECTORY</text>
    <line x1="470" y1="264" x2="1056" y2="264" stroke="#1a2942"/>
<line x1="470" y1="114" x2="1056" y2="114" stroke="#1a2942" stroke-dasharray="2 4"/>
<text x="464" y="118" fill="#4a5b75" font-size="9" text-anchor="end">783</text>
<text x="464" y="267" fill="#4a5b75" font-size="9" text-anchor="end">0</text>
    <polygon points="470,264 470.00,264.00 523.27,264.00 576.55,264.00 629.82,261.70 683.09,224.54 736.36,123.77 789.64,142.93 842.91,181.62 896.18,141.97 949.45,114.00 1002.73,187.56 1056.00,245.99 1056,264" fill="url(#limeFade)"/>
    <polyline points="470.00,264.00 523.27,264.00 576.55,264.00 629.82,261.70 683.09,224.54 736.36,123.77 789.64,142.93 842.91,181.62 896.18,141.97 949.45,114.00 1002.73,187.56 1056.00,245.99" fill="none" stroke="#a3e635" stroke-width="2.5" stroke-linecap="round" stroke-linejoin="round"/>
    <circle cx="949.5" cy="114.0" r="4" fill="#fbbf24" stroke="#06101c" stroke-width="2"/>
<text x="955.5" y="106.0" fill="#fbbf24" font-size="10" font-weight="700" text-anchor="start">peak · 783</text>
<circle cx="1056.0" cy="246.0" r="4" fill="#a3e635" stroke="#06101c" stroke-width="2"/>
<text x="1050.0" y="238.0" fill="#a3e635" font-size="10" font-weight="700" text-anchor="end">now · 94</text>
    <text x="470.0" y="280" fill="#4a5b75" font-size="10" text-anchor="middle">Aug</text>
<text x="576.5" y="280" fill="#4a5b75" font-size="10" text-anchor="middle">Oct</text>
<text x="683.1" y="280" fill="#4a5b75" font-size="10" text-anchor="middle">Dec</text>
<text x="789.6" y="280" fill="#4a5b75" font-size="10" text-anchor="middle">Feb</text>
<text x="896.2" y="280" fill="#4a5b75" font-size="10" text-anchor="middle">Apr</text>
<text x="1002.7" y="280" fill="#4a5b75" font-size="10" text-anchor="middle">Jun</text>
  </g>

  <!-- Hairline + Number strip -->
  <line x1="44" y1="300" x2="1056" y2="300" stroke="#1a2942"/>
  <text x="44" y="312" fill="#7286a0" font-size="10" font-weight="700" letter-spacing="2">VITALS</text>
  <text x="44.0" y="320" fill="#7286a0" font-size="10" font-weight="700" letter-spacing="1.5">ALL COMMITS</text>
<text x="44.0" y="340" fill="#a3e635" font-size="24" font-weight="800" letter-spacing="-1">3,940</text>
<text x="44.0" y="358" fill="#4a5b75" font-size="11">across 35 repos</text>
<text x="212.66666666666666" y="320" fill="#7286a0" font-size="10" font-weight="700" letter-spacing="1.5">30D VELOCITY</text>
<text x="212.66666666666666" y="340" fill="#fb7185" font-size="24" font-weight="800" letter-spacing="-1">354</text>
<text x="212.66666666666666" y="358" fill="#4a5b75" font-size="11">▼ -58% vs prior 30</text>
<line x1="202.66666666666666" y1="316" x2="202.66666666666666" y2="370" stroke="#1a2942"/>
<text x="381.3333333333333" y="320" fill="#7286a0" font-size="10" font-weight="700" letter-spacing="1.5">ACTIVE DAYS</text>
<text x="381.3333333333333" y="340" fill="#67e8f9" font-size="24" font-weight="800" letter-spacing="-1">55%</text>
<text x="381.3333333333333" y="358" fill="#4a5b75" font-size="11">mean gap 1.8d</text>
<line x1="371.3333333333333" y1="316" x2="371.3333333333333" y2="370" stroke="#1a2942"/>
<text x="550.0" y="320" fill="#7286a0" font-size="10" font-weight="700" letter-spacing="1.5">BIGGEST DAY</text>
<text x="550.0" y="340" fill="#fbbf24" font-size="24" font-weight="800" letter-spacing="-1">138</text>
<text x="550.0" y="358" fill="#4a5b75" font-size="11">on 2026-01-22</text>
<line x1="540.0" y1="316" x2="540.0" y2="370" stroke="#1a2942"/>
<text x="718.6666666666666" y="320" fill="#7286a0" font-size="10" font-weight="700" letter-spacing="1.5">BURST DAYS</text>
<text x="718.6666666666666" y="340" fill="#c084fc" font-size="24" font-weight="800" letter-spacing="-1">21</text>
<text x="718.6666666666666" y="358" fill="#4a5b75" font-size="11">≥ 45 commits</text>
<line x1="708.6666666666666" y1="316" x2="708.6666666666666" y2="370" stroke="#1a2942"/>
<text x="887.3333333333333" y="320" fill="#7286a0" font-size="10" font-weight="700" letter-spacing="1.5">PULL REQUESTS</text>
<text x="887.3333333333333" y="340" fill="#f472b6" font-size="24" font-weight="800" letter-spacing="-1">430</text>
<text x="887.3333333333333" y="358" fill="#4a5b75" font-size="11">94% merged · 30 active wks</text>
<line x1="877.3333333333333" y1="316" x2="877.3333333333333" y2="370" stroke="#1a2942"/>

  <!-- Section row -->
  <line x1="44" y1="412" x2="1056" y2="412" stroke="#1a2942"/>
  <text x="44" y="432" fill="#f4f7fb" font-size="11" font-weight="700" letter-spacing="2">WEEKDAY PULSE</text>
<text x="514" y="432" fill="#4a5b75" font-size="10.5" letter-spacing="1" text-anchor="end">LOUDEST THU · QUIETEST SUN</text>
<text x="580" y="432" fill="#f4f7fb" font-size="11" font-weight="700" letter-spacing="2">HOUR OF DAY (IST)</text>
<text x="1056" y="432" fill="#4a5b75" font-size="10.5" letter-spacing="1" text-anchor="end">PEAK 12:00 · 3940 COMMITS</text>
<line x1="44" y1="444" x2="514" y2="444" stroke="#1a2942"/>
<line x1="580" y1="444" x2="1056" y2="444" stroke="#1a2942"/>
  <rect x="52" y="499.4" width="42" height="84.6" rx="2" fill="#a3e635" opacity="0.78"/>
<text x="73.0" y="600" fill="#7286a0" font-size="10.5" text-anchor="middle">Mon</text>
<text x="73.0" y="493.4" fill="#c8d2e2" font-size="10" text-anchor="middle">11.3</text>
<rect x="112" y="508.1" width="42" height="75.9" rx="2" fill="#a3e635" opacity="0.78"/>
<text x="133.0" y="600" fill="#7286a0" font-size="10.5" text-anchor="middle">Tue</text>
<text x="133.0" y="502.1" fill="#c8d2e2" font-size="10" text-anchor="middle">10.1</text>
<rect x="172" y="495.7" width="42" height="88.3" rx="2" fill="#a3e635" opacity="0.78"/>
<text x="193.0" y="600" fill="#7286a0" font-size="10.5" text-anchor="middle">Wed</text>
<text x="193.0" y="489.7" fill="#c8d2e2" font-size="10" text-anchor="middle">11.8</text>
<rect x="232" y="474.0" width="42" height="110.0" rx="2" fill="#fbbf24" opacity="1.0"/>
<text x="253.0" y="600" fill="#7286a0" font-size="10.5" text-anchor="middle">Thu</text>
<text x="253.0" y="468.0" fill="#c8d2e2" font-size="10" text-anchor="middle">14.7</text>
<rect x="292" y="512.5" width="42" height="71.5" rx="2" fill="#a3e635" opacity="0.78"/>
<text x="313.0" y="600" fill="#7286a0" font-size="10.5" text-anchor="middle">Fri</text>
<text x="313.0" y="506.5" fill="#c8d2e2" font-size="10" text-anchor="middle">9.5</text>
<rect x="352" y="512.8" width="42" height="71.2" rx="2" fill="#a3e635" opacity="0.78"/>
<text x="373.0" y="600" fill="#7286a0" font-size="10.5" text-anchor="middle">Sat</text>
<text x="373.0" y="506.8" fill="#c8d2e2" font-size="10" text-anchor="middle">9.5</text>
<rect x="412" y="519.6" width="42" height="64.4" rx="2" fill="#4a5b75" opacity="0.4"/>
<text x="433.0" y="600" fill="#7286a0" font-size="10.5" text-anchor="middle">Sun</text>
<text x="433.0" y="513.6" fill="#c8d2e2" font-size="10" text-anchor="middle">8.6</text>
  <rect x="580.0" y="572.5" width="17.9" height="11.5" rx="1" fill="#c084fc" opacity="0.7"/>
<rect x="599.9" y="581.3" width="17.9" height="2.7" rx="1" fill="#c084fc" opacity="0.7"/>
<rect x="619.8" y="582.5" width="17.9" height="1.5" rx="1" fill="#c084fc" opacity="0.7"/>
<rect x="639.8" y="581.9" width="17.9" height="2.1" rx="1" fill="#c084fc" opacity="0.7"/>
<rect x="659.7" y="578.7" width="17.9" height="5.3" rx="1" fill="#c084fc" opacity="0.7"/>
<rect x="679.6" y="582.2" width="17.9" height="1.8" rx="1" fill="#c084fc" opacity="0.7"/>
<rect x="699.5" y="553.8" width="17.9" height="30.2" rx="1" fill="#67e8f9" opacity="0.7"/>
<rect x="719.4" y="551.2" width="17.9" height="32.8" rx="1" fill="#67e8f9" opacity="0.7"/>
<rect x="739.3" y="543.8" width="17.9" height="40.2" rx="1" fill="#67e8f9" opacity="0.7"/>
<rect x="759.2" y="512.4" width="17.9" height="71.6" rx="1" fill="#67e8f9" opacity="0.7"/>
<rect x="779.2" y="488.2" width="17.9" height="95.8" rx="1" fill="#67e8f9" opacity="0.7"/>
<rect x="799.1" y="502.7" width="17.9" height="81.3" rx="1" fill="#67e8f9" opacity="0.7"/>
<rect x="819.0" y="474.0" width="17.9" height="110.0" rx="1" fill="#f4f7fb" opacity="0.95"/>
<rect x="838.9" y="493.8" width="17.9" height="90.2" rx="1" fill="#a3e635" opacity="0.7"/>
<rect x="858.8" y="504.8" width="17.9" height="79.2" rx="1" fill="#a3e635" opacity="0.7"/>
<rect x="878.8" y="505.3" width="17.9" height="78.7" rx="1" fill="#a3e635" opacity="0.7"/>
<rect x="898.7" y="521.3" width="17.9" height="62.7" rx="1" fill="#a3e635" opacity="0.7"/>
<rect x="918.6" y="515.7" width="17.9" height="68.3" rx="1" fill="#a3e635" opacity="0.7"/>
<rect x="938.5" y="515.4" width="17.9" height="68.6" rx="1" fill="#fbbf24" opacity="0.7"/>
<rect x="958.4" y="520.4" width="17.9" height="63.6" rx="1" fill="#fbbf24" opacity="0.7"/>
<rect x="978.3" y="543.2" width="17.9" height="40.8" rx="1" fill="#fbbf24" opacity="0.7"/>
<rect x="998.2" y="542.6" width="17.9" height="41.4" rx="1" fill="#fbbf24" opacity="0.7"/>
<rect x="1018.2" y="533.7" width="17.9" height="50.3" rx="1" fill="#fbbf24" opacity="0.7"/>
<rect x="1038.1" y="547.9" width="17.9" height="36.1" rx="1" fill="#fbbf24" opacity="0.7"/>
<text x="580.0" y="600" fill="#4a5b75" font-size="10" text-anchor="middle">00</text>
<text x="699.5" y="600" fill="#4a5b75" font-size="10" text-anchor="middle">06</text>
<text x="819.0" y="600" fill="#4a5b75" font-size="10" text-anchor="middle">12</text>
<text x="938.5" y="600" fill="#4a5b75" font-size="10" text-anchor="middle">18</text>
<text x="1038.1" y="600" fill="#4a5b75" font-size="10" text-anchor="middle">23</text>
<line x1="580" y1="584" x2="1056" y2="584" stroke="#1a2942"/>

  <!-- Bottom: Top projects -->
  <text x="44" y="632" fill="#f4f7fb" font-size="11" font-weight="700" letter-spacing="2">TOP PROJECTS · 7D</text>
<text x="580" y="632" fill="#f4f7fb" font-size="11" font-weight="700" letter-spacing="2">TOP PROJECTS · 30D</text>
<line x1="44" y1="644" x2="514" y2="644" stroke="#1a2942"/>
<line x1="580" y1="644" x2="1056" y2="644" stroke="#1a2942"/>
  <text x="44" y="656" fill="#c8d2e2" font-size="12" font-weight="600">pravah</text>
<rect x="194" y="648" width="240" height="6" rx="1" fill="#1a2942"/>
<rect x="194" y="648" width="240.0" height="6" rx="1" fill="#a3e635"/>
<text x="484" y="656" fill="#7286a0" font-size="11" text-anchor="end">84</text>
<text x="44" y="674" fill="#c8d2e2" font-size="12" font-weight="600">hyprfolio</text>
<rect x="194" y="666" width="240" height="6" rx="1" fill="#1a2942"/>
<rect x="194" y="666" width="20.0" height="6" rx="1" fill="#a3e635"/>
<text x="484" y="674" fill="#7286a0" font-size="11" text-anchor="end">7</text>
<text x="44" y="692" fill="#c8d2e2" font-size="12" font-weight="600">dotfiles</text>
<rect x="194" y="684" width="240" height="6" rx="1" fill="#1a2942"/>
<rect x="194" y="684" width="8.6" height="6" rx="1" fill="#a3e635"/>
<text x="484" y="692" fill="#7286a0" font-size="11" text-anchor="end">3</text>
  <text x="580" y="656" fill="#c8d2e2" font-size="12" font-weight="600">pravah</text>
<rect x="730" y="648" width="246" height="6" rx="1" fill="#1a2942"/>
<rect x="730" y="648" width="246.0" height="6" rx="1" fill="#67e8f9"/>
<text x="1026" y="656" fill="#7286a0" font-size="11" text-anchor="end">193</text>
<text x="580" y="674" fill="#c8d2e2" font-size="12" font-weight="600">pomo</text>
<rect x="730" y="666" width="246" height="6" rx="1" fill="#1a2942"/>
<rect x="730" y="666" width="86.7" height="6" rx="1" fill="#67e8f9"/>
<text x="1026" y="674" fill="#7286a0" font-size="11" text-anchor="end">68</text>
<text x="580" y="692" fill="#c8d2e2" font-size="12" font-weight="600">hyprfolio</text>
<rect x="730" y="684" width="246" height="6" rx="1" fill="#1a2942"/>
<rect x="730" y="684" width="39.5" height="6" rx="1" fill="#67e8f9"/>
<text x="1026" y="692" fill="#7286a0" font-size="11" text-anchor="end">31</text>
</svg>
