<svg width="1100" height="730" viewBox="0 0 1100 730" xmlns="http://www.w3.org/2000/svg" role="img" aria-labelledby="ttl desc">
  <title id="ttl">Snehit build telemetry</title>
  <desc id="desc">Streak hero, twelve-month commit trajectory, weekday pulse, hour-of-day distribution, and top projects.</desc>
  <style>text { font-family: 'JetBrains Mono', 'SF Mono', ui-monospace, Menlo, monospace; } .sans { font-family: 'Inter', ui-sans-serif, system-ui, sans-serif; }</style>
  <defs>
  <linearGradient id="bgGrad" x1="0" x2="1" y1="0" y2="1">
    <stop offset="0" stop-color="#06101c"/>
    <stop offset="1" stop-color="#040912"/>
  </linearGradient>
  <pattern id="dots" width="20" height="20" patternUnits="userSpaceOnUse">
    <circle cx="1" cy="1" r="0.9" fill="#16263f" opacity="0.55"/>
  </pattern>
  <linearGradient id="limeFade" x1="0" x2="0" y1="0" y2="1">
    <stop offset="0" stop-color="#a3e635" stop-opacity="0.55"/>
    <stop offset="1" stop-color="#a3e635" stop-opacity="0"/>
  </linearGradient>
  <linearGradient id="cyanFade" x1="0" x2="0" y1="0" y2="1">
    <stop offset="0" stop-color="#67e8f9" stop-opacity="0.45"/>
    <stop offset="1" stop-color="#67e8f9" stop-opacity="0"/>
  </linearGradient>
</defs>
  <rect width="1100" height="730" rx="10" fill="url(#bgGrad)"/>
<rect width="1100" height="730" rx="10" fill="url(#dots)"/>
<rect x="0.5" y="0.5" width="1099" height="729" rx="9.5" fill="none" stroke="#243652"/>


  <!-- Header -->
  <text x="44" y="56" fill="#f4f7fb" font-size="26" font-weight="800" letter-spacing="-0.5" class="sans">build telemetry</text>
  <text x="44" y="76" fill="#7286a0" font-size="11" letter-spacing="1">SNEHIT · TRAILING 366 DAYS · 19 PUBLIC + 16 PRIVATE · 2026-05-25</text>
  <line x1="44" y1="86" x2="1056" y2="86" stroke="#243652"/>

  <!-- Hero: streak + trajectory -->
  <g>
    <text x="44" y="108" fill="#7286a0" font-size="10" font-weight="700" letter-spacing="2">CURRENT STREAK</text>
    <text x="44" y="201" fill="#a3e635" font-size="118" font-weight="900" letter-spacing="-6" class="sans">126<tspan font-size="40" fill="#f4f7fb" font-weight="800">d</tspan></text>
    <text x="44" y="234" fill="#c8d2e2" font-size="13">longest run 126d  ·  longest quiet stretch 115d</text>
    <text x="44" y="264" fill="#4a5b75" font-size="11">avg commit size 539 lines · code growth 85% additions</text>
  </g>
  <g>
    <text x="470" y="108" fill="#7286a0" font-size="10" font-weight="700" letter-spacing="2">12-MONTH TRAJECTORY</text>
    <line x1="470" y1="264" x2="1056" y2="264" stroke="#1a2942"/>
<line x1="470" y1="114" x2="1056" y2="114" stroke="#1a2942" stroke-dasharray="2 4"/>
<text x="464" y="118" fill="#4a5b75" font-size="9" text-anchor="end">730</text>
<text x="464" y="267" fill="#4a5b75" font-size="9" text-anchor="end">0</text>
    <polygon points="470,264 470.00,264.00 523.27,260.92 576.55,264.00 629.82,264.00 683.09,264.00 736.36,261.53 789.64,221.67 842.91,114.00 896.18,139.48 949.45,177.08 1002.73,136.60 1056.00,142.36 1056,264" fill="url(#limeFade)"/>
    <polyline points="470.00,264.00 523.27,260.92 576.55,264.00 629.82,264.00 683.09,264.00 736.36,261.53 789.64,221.67 842.91,114.00 896.18,139.48 949.45,177.08 1002.73,136.60 1056.00,142.36" fill="none" stroke="#a3e635" stroke-width="2.5" stroke-linecap="round" stroke-linejoin="round"/>
    <circle cx="842.9" cy="114.0" r="4" fill="#fbbf24" stroke="#06101c" stroke-width="2"/>
<text x="848.9" y="106.0" fill="#fbbf24" font-size="10" font-weight="700" text-anchor="start">peak · 730</text>
<circle cx="1056.0" cy="142.4" r="4" fill="#a3e635" stroke="#06101c" stroke-width="2"/>
<text x="1050.0" y="134.4" fill="#a3e635" font-size="10" font-weight="700" text-anchor="end">now · 592</text>
    <text x="470.0" y="280" fill="#4a5b75" font-size="10" text-anchor="middle">Jun</text>
<text x="576.5" y="280" fill="#4a5b75" font-size="10" text-anchor="middle">Aug</text>
<text x="683.1" y="280" fill="#4a5b75" font-size="10" text-anchor="middle">Oct</text>
<text x="789.6" y="280" fill="#4a5b75" font-size="10" text-anchor="middle">Dec</text>
<text x="896.2" y="280" fill="#4a5b75" font-size="10" text-anchor="middle">Feb</text>
<text x="1002.7" y="280" fill="#4a5b75" font-size="10" text-anchor="middle">Apr</text>
  </g>

  <!-- Hairline + Number strip -->
  <line x1="44" y1="300" x2="1056" y2="300" stroke="#1a2942"/>
  <text x="44" y="312" fill="#7286a0" font-size="10" font-weight="700" letter-spacing="2">VITALS</text>
  <text x="44.0" y="320" fill="#7286a0" font-size="10" font-weight="700" letter-spacing="1.5">ALL COMMITS</text>
<text x="44.0" y="340" fill="#a3e635" font-size="24" font-weight="800" letter-spacing="-1">3,204</text>
<text x="44.0" y="358" fill="#4a5b75" font-size="11">across 32 repos</text>
<text x="212.66666666666666" y="320" fill="#7286a0" font-size="10" font-weight="700" letter-spacing="1.5">30D VELOCITY</text>
<text x="212.66666666666666" y="340" fill="#a3e635" font-size="24" font-weight="800" letter-spacing="-1">715</text>
<text x="212.66666666666666" y="358" fill="#4a5b75" font-size="11">▲ +28% vs prior 30</text>
<line x1="202.66666666666666" y1="316" x2="202.66666666666666" y2="370" stroke="#1a2942"/>
<text x="381.3333333333333" y="320" fill="#7286a0" font-size="10" font-weight="700" letter-spacing="1.5">ACTIVE DAYS</text>
<text x="381.3333333333333" y="340" fill="#67e8f9" font-size="24" font-weight="800" letter-spacing="-1">44%</text>
<text x="381.3333333333333" y="358" fill="#4a5b75" font-size="11">mean gap 2.0d</text>
<line x1="371.3333333333333" y1="316" x2="371.3333333333333" y2="370" stroke="#1a2942"/>
<text x="550.0" y="320" fill="#7286a0" font-size="10" font-weight="700" letter-spacing="1.5">BIGGEST DAY</text>
<text x="550.0" y="340" fill="#fbbf24" font-size="24" font-weight="800" letter-spacing="-1">136</text>
<text x="550.0" y="358" fill="#4a5b75" font-size="11">on 2026-01-22</text>
<line x1="540.0" y1="316" x2="540.0" y2="370" stroke="#1a2942"/>
<text x="718.6666666666666" y="320" fill="#7286a0" font-size="10" font-weight="700" letter-spacing="1.5">BURST DAYS</text>
<text x="718.6666666666666" y="340" fill="#c084fc" font-size="24" font-weight="800" letter-spacing="-1">17</text>
<text x="718.6666666666666" y="358" fill="#4a5b75" font-size="11">≥ 46 commits</text>
<line x1="708.6666666666666" y1="316" x2="708.6666666666666" y2="370" stroke="#1a2942"/>
<text x="887.3333333333333" y="320" fill="#7286a0" font-size="10" font-weight="700" letter-spacing="1.5">PULL REQUESTS</text>
<text x="887.3333333333333" y="340" fill="#f472b6" font-size="24" font-weight="800" letter-spacing="-1">300</text>
<text x="887.3333333333333" y="358" fill="#4a5b75" font-size="11">95% merged · 25 active wks</text>
<line x1="877.3333333333333" y1="316" x2="877.3333333333333" y2="370" stroke="#1a2942"/>

  <!-- Section row -->
  <line x1="44" y1="412" x2="1056" y2="412" stroke="#1a2942"/>
  <text x="44" y="432" fill="#f4f7fb" font-size="11" font-weight="700" letter-spacing="2">WEEKDAY PULSE</text>
<text x="514" y="432" fill="#4a5b75" font-size="10.5" letter-spacing="1" text-anchor="end">LOUDEST THU · QUIETEST SUN</text>
<text x="580" y="432" fill="#f4f7fb" font-size="11" font-weight="700" letter-spacing="2">HOUR OF DAY (IST)</text>
<text x="1056" y="432" fill="#4a5b75" font-size="10.5" letter-spacing="1" text-anchor="end">PEAK 12:00 · 3204 COMMITS</text>
<line x1="44" y1="444" x2="514" y2="444" stroke="#1a2942"/>
<line x1="580" y1="444" x2="1056" y2="444" stroke="#1a2942"/>
  <rect x="52" y="484.0" width="42" height="100.0" rx="2" fill="#a3e635" opacity="0.78"/>
<text x="73.0" y="600" fill="#7286a0" font-size="10.5" text-anchor="middle">Mon</text>
<text x="73.0" y="478.0" fill="#c8d2e2" font-size="10" text-anchor="middle">10.0</text>
<rect x="112" y="502.7" width="42" height="81.3" rx="2" fill="#a3e635" opacity="0.78"/>
<text x="133.0" y="600" fill="#7286a0" font-size="10.5" text-anchor="middle">Tue</text>
<text x="133.0" y="496.7" fill="#c8d2e2" font-size="10" text-anchor="middle">8.1</text>
<rect x="172" y="492.8" width="42" height="91.2" rx="2" fill="#a3e635" opacity="0.78"/>
<text x="193.0" y="600" fill="#7286a0" font-size="10.5" text-anchor="middle">Wed</text>
<text x="193.0" y="486.8" fill="#c8d2e2" font-size="10" text-anchor="middle">9.1</text>
<rect x="232" y="474.0" width="42" height="110.0" rx="2" fill="#fbbf24" opacity="1.0"/>
<text x="253.0" y="600" fill="#7286a0" font-size="10.5" text-anchor="middle">Thu</text>
<text x="253.0" y="468.0" fill="#c8d2e2" font-size="10" text-anchor="middle">11.0</text>
<rect x="292" y="506.7" width="42" height="77.3" rx="2" fill="#a3e635" opacity="0.78"/>
<text x="313.0" y="600" fill="#7286a0" font-size="10.5" text-anchor="middle">Fri</text>
<text x="313.0" y="500.7" fill="#c8d2e2" font-size="10" text-anchor="middle">7.7</text>
<rect x="352" y="501.3" width="42" height="82.7" rx="2" fill="#a3e635" opacity="0.78"/>
<text x="373.0" y="600" fill="#7286a0" font-size="10.5" text-anchor="middle">Sat</text>
<text x="373.0" y="495.3" fill="#c8d2e2" font-size="10" text-anchor="middle">8.3</text>
<rect x="412" y="513.6" width="42" height="70.4" rx="2" fill="#4a5b75" opacity="0.4"/>
<text x="433.0" y="600" fill="#7286a0" font-size="10.5" text-anchor="middle">Sun</text>
<text x="433.0" y="507.6" fill="#c8d2e2" font-size="10" text-anchor="middle">7.0</text>
  <rect x="580.0" y="577.4" width="17.9" height="6.6" rx="1" fill="#c084fc" opacity="0.7"/>
<rect x="599.9" y="583.7" width="17.9" height="0.3" rx="1" fill="#c084fc" opacity="0.7"/>
<rect x="619.8" y="582.5" width="17.9" height="1.5" rx="1" fill="#c084fc" opacity="0.7"/>
<rect x="639.8" y="581.7" width="17.9" height="2.3" rx="1" fill="#c084fc" opacity="0.7"/>
<rect x="659.7" y="579.1" width="17.9" height="4.9" rx="1" fill="#c084fc" opacity="0.7"/>
<rect x="679.6" y="582.0" width="17.9" height="2.0" rx="1" fill="#c084fc" opacity="0.7"/>
<rect x="699.5" y="551.1" width="17.9" height="32.9" rx="1" fill="#67e8f9" opacity="0.7"/>
<rect x="719.4" y="561.9" width="17.9" height="22.1" rx="1" fill="#67e8f9" opacity="0.7"/>
<rect x="739.3" y="547.4" width="17.9" height="36.6" rx="1" fill="#67e8f9" opacity="0.7"/>
<rect x="759.2" y="526.7" width="17.9" height="57.3" rx="1" fill="#67e8f9" opacity="0.7"/>
<rect x="779.2" y="504.3" width="17.9" height="79.7" rx="1" fill="#67e8f9" opacity="0.7"/>
<rect x="799.1" y="510.9" width="17.9" height="73.1" rx="1" fill="#67e8f9" opacity="0.7"/>
<rect x="819.0" y="474.0" width="17.9" height="110.0" rx="1" fill="#f4f7fb" opacity="0.95"/>
<rect x="838.9" y="504.6" width="17.9" height="79.4" rx="1" fill="#a3e635" opacity="0.7"/>
<rect x="858.8" y="514.8" width="17.9" height="69.2" rx="1" fill="#a3e635" opacity="0.7"/>
<rect x="878.8" y="518.1" width="17.9" height="65.9" rx="1" fill="#a3e635" opacity="0.7"/>
<rect x="898.7" y="527.4" width="17.9" height="56.6" rx="1" fill="#a3e635" opacity="0.7"/>
<rect x="918.6" y="510.9" width="17.9" height="73.1" rx="1" fill="#a3e635" opacity="0.7"/>
<rect x="938.5" y="519.4" width="17.9" height="64.6" rx="1" fill="#fbbf24" opacity="0.7"/>
<rect x="958.4" y="521.1" width="17.9" height="62.9" rx="1" fill="#fbbf24" opacity="0.7"/>
<rect x="978.3" y="547.4" width="17.9" height="36.6" rx="1" fill="#fbbf24" opacity="0.7"/>
<rect x="998.2" y="546.5" width="17.9" height="37.5" rx="1" fill="#fbbf24" opacity="0.7"/>
<rect x="1018.2" y="535.3" width="17.9" height="48.7" rx="1" fill="#fbbf24" opacity="0.7"/>
<rect x="1038.1" y="551.1" width="17.9" height="32.9" rx="1" fill="#fbbf24" opacity="0.7"/>
<text x="580.0" y="600" fill="#4a5b75" font-size="10" text-anchor="middle">00</text>
<text x="699.5" y="600" fill="#4a5b75" font-size="10" text-anchor="middle">06</text>
<text x="819.0" y="600" fill="#4a5b75" font-size="10" text-anchor="middle">12</text>
<text x="938.5" y="600" fill="#4a5b75" font-size="10" text-anchor="middle">18</text>
<text x="1038.1" y="600" fill="#4a5b75" font-size="10" text-anchor="middle">23</text>
<line x1="580" y1="584" x2="1056" y2="584" stroke="#1a2942"/>

  <!-- Bottom: Top projects -->
  <text x="44" y="632" fill="#f4f7fb" font-size="11" font-weight="700" letter-spacing="2">TOP PROJECTS · 7D</text>
<text x="580" y="632" fill="#f4f7fb" font-size="11" font-weight="700" letter-spacing="2">TOP PROJECTS · 30D</text>
<line x1="44" y1="644" x2="514" y2="644" stroke="#1a2942"/>
<line x1="580" y1="644" x2="1056" y2="644" stroke="#1a2942"/>
  <text x="44" y="656" fill="#c8d2e2" font-size="12" font-weight="600">pravah</text>
<rect x="194" y="648" width="240" height="6" rx="1" fill="#1a2942"/>
<rect x="194" y="648" width="240.0" height="6" rx="1" fill="#a3e635"/>
<text x="484" y="656" fill="#7286a0" font-size="11" text-anchor="end">98</text>
<text x="44" y="674" fill="#c8d2e2" font-size="12" font-weight="600">fieldForce</text>
<rect x="194" y="666" width="240" height="6" rx="1" fill="#1a2942"/>
<rect x="194" y="666" width="149.4" height="6" rx="1" fill="#a3e635"/>
<text x="484" y="674" fill="#7286a0" font-size="11" text-anchor="end">61</text>
<text x="44" y="692" fill="#c8d2e2" font-size="12" font-weight="600">aceon</text>
<rect x="194" y="684" width="240" height="6" rx="1" fill="#1a2942"/>
<rect x="194" y="684" width="83.3" height="6" rx="1" fill="#a3e635"/>
<text x="484" y="692" fill="#7286a0" font-size="11" text-anchor="end">34</text>
  <text x="580" y="656" fill="#c8d2e2" font-size="12" font-weight="600">pravah</text>
<rect x="730" y="648" width="246" height="6" rx="1" fill="#1a2942"/>
<rect x="730" y="648" width="246.0" height="6" rx="1" fill="#67e8f9"/>
<text x="1026" y="656" fill="#7286a0" font-size="11" text-anchor="end">324</text>
<text x="580" y="674" fill="#c8d2e2" font-size="12" font-weight="600">fieldForce</text>
<rect x="730" y="666" width="246" height="6" rx="1" fill="#1a2942"/>
<rect x="730" y="666" width="106.3" height="6" rx="1" fill="#67e8f9"/>
<text x="1026" y="674" fill="#7286a0" font-size="11" text-anchor="end">140</text>
<text x="580" y="692" fill="#c8d2e2" font-size="12" font-weight="600">pomo</text>
<rect x="730" y="684" width="246" height="6" rx="1" fill="#1a2942"/>
<rect x="730" y="684" width="53.1" height="6" rx="1" fill="#67e8f9"/>
<text x="1026" y="692" fill="#7286a0" font-size="11" text-anchor="end">70</text>
</svg>
